<svg xmlns="http://www.w3.org/2000/svg" viewBox="0 0 512 512"><path d="M512 256c0 141.385-114.615 256-256 256C120.069 512 8.882 406.058.512 272.238A253.278 253.278 0 0 1 0 256c0-2.424.031-4.848.104-7.252a256.583 256.583 0 0 1 3.051-33.05c.021-.136.042-.272.073-.408v-.01C22.737 93.236 128.47 0 256 0c129.17 0 235.99 95.66 253.482 220.003a255.553 255.553 0 0 1 2.508 34.147c.01.617.01 1.233.01 1.85z" fill="#333"/><circle cx="170.318" cy="242.981" r="98.252" fill="#0078c5"/><path d="M268.255 235.402a1.653 1.653 0 0 0-.616.046c-.217-.276-.476-.573-.788-.74a70.365 70.365 0 0 1-.602-1.321 3.747 3.747 0 0 0 .418-1.71c.439.261.767.318 1.264.195a97.685 97.685 0 0 0-16.097-43.761c-.14.085-.246.155-.395.33a1.696 1.696 0 0 0-2.159.911c-.319.704-.11 1.283.048 1.883a1.698 1.698 0 0 0 .468 1.38c.009.025.688 1.421.93 1.936.189.401.39.509.513.636v-.001c.311.47.602 1.087.903 1.618l-.426 1.027c-.314.755-.019 1.239.333 2.184a1.678 1.678 0 0 0-.063.378c-.472.455-.665 1.088-.373 1.922a1.696 1.696 0 0 0-.961 1.095c-1.726.469-1.402 1.938-.907 3.533a1.693 1.693 0 0 0 1.568 1.193c.13.179.281.38.473.573.394 1.089 1.015 1.96 1.487 2.778-.002.419.052.812.126 1.176-1.504-.424-2.792-1.063-3.682.079-2.127.783-.52 3.128-.11 5.728.185 1.262-.569 3.228.469 5.258.505 1.609.055 3.077 1.622 3.478l.704.182c.065.319.192.761.48 1.176-.283 2.452-.581 2.676-1.019 2.976-2.324 1.569-2.008 3.843-1.819 5.2.182 1.314.216 1.392-.642 2.593-1.234.259-1.735 1.025-2.291 2.476-.911 2.178-3.027 6.74-3.787 7.634-.975.622-1.736 4.176-.701 5.237-.925 7.195-3.761 7.049-2.497 8.957-.741 2.133-.749 3.753.942 5.751.028.818.148 2.29.389 5.211.05.605.417 1.125.942 1.383.021.24.03.515.036.718.122 3.84 2.301 4.825 5.218 3.554.175-.076.376-.164.553-.206 1.028 2.067 2.742.815 4.123-.028a1.64 1.64 0 0 0 .508-.043c-.443 1.542.072 2.469.956 2.795-1.382 3.186-3.166 4.735-3.959 7.291-.093.3-.154 2.058-1.212 3.847-4.466 7.607-3.822 7.191-9.232 12.717-2.556 2.612-11.386 12.985-20.092 18.233-1.423.861-2.914 1.815-2.156 3.322.172.343.457.595.788.753 32.392-17.983 53.379-53.577 50.325-93.533zm-8.766-13.189c-.398-1.623.4-1.298 1.111-3.001.139-.333.167-.699.084-1.044.104-.037.204-.084.297-.139 1.348 3.253 1.18 3.546 1.895 4.014.207.732.559 2.31 1.012 4.368a1.664 1.664 0 0 0-.457-.016c-.551-.297-1.055-.222-1.56-.037-.616-.185-2.206.083-2.821.261.364-1.367 1.043-1.927.439-4.406z" fill="#25a346"/><path fill="#00bc5e" d="M249.142 189.812v-.001z"/><path d="M174.398 341.177c.748-.332.518-.239.972-.484.434-.227.867-.572 1.107-.696 1.775-.954 4.319-1.812 4.653-3.235 1.554-.462 1.892-1.443 2.098-1.616.897-.288 1.81-.88 2.135-1.771 1.107-.341 1.65-1.398 2.105-1.941 1.708-.004 3.457-.999 5.488-3.121.32-.333.481-.77.471-1.207 2.41-.106 3.112-1.135 5.029-3.076.135-.027.269-.073.396-.136.521-.272.867-.333 1.214-.72.518-.576 1.115-1.104 1.746-1.664 2.236-1.98 2.716-2.546 3.265-4.087.116-.327.227-.634.346-.763 1.422-1.515 4.549-2.819 5.49-3.155 1.972-.277 3.207-.992 5.46-4.29 3.868-5.72 4.016-5.937 4.482-7.799.701-.256.507-.369 5.99-6.309.859-.948 3.109-6.289.555-7.114-2.361-1.881-2.894-2.994-4.855-3.099-.645 0-1.136.186-1.387.206-.322-.054-.807-.282-1.542-.351-.406-.971-1.064-.839-2.13-1.366-.776-.387-1.365-.65-2.152-.662-.217-.132-.641-.459-1.186-.632l.002-.004c.499-1.173-.366-1.879-.964-2.452.214-1.366.108-2.642-1.142-3.233-.962-1.593-2.948-1.629-3.32-1.875-1.197-.952-2.248.393-4.699-.324-.204-.92-1.718-2.925-3.811-3.303-.472-.511-.879-.861-1.434-1.138a1.697 1.697 0 0 0-.98-1.14c-2.826-1.196-6.308 1.491-7.158 1.184-.215-.126-.457-1.322-1.76-1.33-.186-.001-.387-.002-.531-.007-.393-.521-.833-1.512-2.075-1.333-.25.038-.482.129-.683.26-.917-.378-1.863-.513-2.558.19-1.851 1.872-6.329 2.717-5.88 5.029.041.201-.578.75-1.037 1.314-2.037-1.45-2.775-1.636-4.15-.786-.682-.017-1.24.313-1.548.844-2.274-.094-2.52.248-2.109-7.498a1.694 1.694 0 0 0-.946-1.611c-1.445-.709-4.656-.689-4.784-.674a2.234 2.234 0 0 0-1.087.419 8.335 8.335 0 0 0-.577.147c.037-.334.068-.613.096-.834.641-.616.484-1.31.73-2.497.066-.437-.068-.917-.327-1.28.3-.704 1.595-2.189.769-4.049a1.693 1.693 0 0 0-2.237-.863c-.969.429-2.615.184-4.23 1.097-2.123 1.217-2.006 3.333-2.28 4.823-.739-.153-1.727-.043-2.998.727-2.336 1.412-4.406-5.779-4.826-8.281-.248-6.587 3.09-9.185 7.141-8.849 1.01 1.735 1.768 1.148 3.579.498 1.26.451 2.687-.7 2.132-2.276.434-.065.839-.169 1.207-.263 1.306-.332 1.469-.287 1.805.111a1.7 1.7 0 0 0 1.835.512l1.122-.372c.29.336.527.619.663.808-.611 1.371.065 2.328.965 2.582.947 2.395 2.138 6.441 4.425 4.716.315-.231 1.31-.285 1.557-1.438.509-2.381-.25-4.512-.918-6.392-.631-1.773-1.18-3.314-.72-4.866 1.099-1.134 6.887-5.678 7.646-6.236.372-.254.626-.645.709-1.08.735-.495 1.05-1.44.334-2.546.479-.649.62-1.219.152-2.169.734-.934.982-1.952 1.029-2.848 1.258-.66 1.81-3.099 1.882-3.232.549-.251 1.114-.465 1.68-.68 1.816-.691 3.983-1.452 4.221-2.742.245-1.344-1.178-1.738-.723-3.008.354-.99 1.684-1.961 3.126-2.734-.117 1.634 2.145 3.645 3.57 2.185 1.818-1.864 1.818-1.864 4.912-3.56.593-.326.937-.974.874-1.648-.183-1.929-2.77-1.539-4.802-2.859.253-.56.821-1.138.45-2.09.36-.664.306-1.466-.542-2.32 2.512-.199 5.247-.694 5.305-.709.437-.141.784-.374 1.177-.626.456-.263.763-.797.833-1.326.94-.569 6.255-1.645 1.12-7.652-.418-.489-.813-.951-1.078-1.421a1.633 1.633 0 0 0-1.509-.855 2.771 2.771 0 0 1-.341-.142c-.227-.104-.51-.236-.847-.33l-.11-.077a1.697 1.697 0 0 0-1.267-1.317c.099-.642-.138-1.157-.537-1.619l-.001-.062a5.508 5.508 0 0 0-.138-.932 1.706 1.706 0 0 0-.421-.791c-1.587-1.686-2.346-2.911-3.004-4.851-.712-2.088-4.318-1.145-3.487 1.115l.036.099c-.501.649-.647 1.225-.595 2.021-.068.046-.154.1-.253.163a3.963 3.963 0 0 0-.718-.777c-.156-.441-.318-.799-.386-1.083.008-.055.021-.108.032-.163.093-.461.263-1.318-.263-2.224-.496-.844-1.219-1.137-1.798-1.243a1.692 1.692 0 0 0-.741-.7c-.242-.117-.504-.385-.806-.692-.299-.306-.639-.651-1.068-.962a1.694 1.694 0 0 0-2.155.136c-2.656-1.555-6.161.183-4.886 3.251a1.696 1.696 0 0 0 .13 2.607l.023.081c-.459.555-.636 1.151-.789 1.572a1.696 1.696 0 0 0-.855 1.721c.1.698.276.911 1.45 1.879.188.819.63 1.744.694 2.36-1.192 1.221-3.807 1.875-4.381 2.428a1.698 1.698 0 0 0-1.005-.933c-.254-.087-.571-.202-.858-.306l-.286-.103a1.697 1.697 0 0 0-1.399.114 3.8 3.8 0 0 1-.533.259c-.467-.255-1.325-1.119-1.71-1.319-.216-.201-.586-.391-.856-.507-.281-.567-.72-1.079-1.663-1.47-.111-.045-.121-.051-1.79-.559l-1.083-.331a1.537 1.537 0 0 0-.164-.047 9.582 9.582 0 0 0-.075-.534c-.032-.202-.082-.508-.071-.583a1.701 1.701 0 0 0-.867-2.081c.059-.227.114-.448.167-.665 1.246-5.067 2.86-2.746 3.746-4.495.276-.241 1.962-.676 2.481-2.059a1.69 1.69 0 0 0 .82-.692c1.033-.045 2.184-.958 3.837-2.272.437-.347.668-.879.639-1.418.346-.248.712-.638.86-.845.404.037.633.056.897.002 1.162.511 1.878-.345 2.866-1.187.095-.126 1.798-.258 1.052-2.989.683-.394.972-1.068.884-1.722a1.697 1.697 0 0 0-.892-2.413c-.328-.121-.685-.354-1.065-.6-.426-.277-.909-.59-1.475-.833a1.695 1.695 0 0 0-1.502.085c-.827.468-1.274 1.073-1.371 1.889-.256-.427-.741-.981-1.295-1.164.091-1.559-.79-4.237-1.107-4.67a1.699 1.699 0 0 0-1.884-.62 4.229 4.229 0 0 0-1.482.858c-.065.06-.124.123-.179.191-.136.066-.264.15-.382.253-1.188 1.042-1.72 2.748-1.931 3.672-.181.788.23 1.197.404 1.526-.443-.031-.955-.07-1.521-.113a1.697 1.697 0 0 0-1.68 1.009l-.005.013c-.914-.111-1.889-.038-2.479-.173-.116-1.688-1.162-2.327-2.197-2.073l-.001-.004c-1.438.226-3.116.478-3.516 1.725-.435-.174-.785-.137-1.172-.034a1.799 1.799 0 0 0-.028-.252c-.281-1.505-.938-2.47-2.447-2.179l-.297-.217c.148-.999-.581-1.843-1.583-1.985a1.904 1.904 0 0 0-.167-.181 1.693 1.693 0 0 0-.55-1.606c-1.332-1.165-2.539.311-2.727.395a1.678 1.678 0 0 0-1.307.07c-.565.272-1.681.366-2.627.682-.647-.157-1.008.089-1.633.306a1.697 1.697 0 0 0-.68-1.43c.012-.065.018-.131.021-.195.122-.186.208-.393.25-.611.043-.047.022-.025.336-.413a1.697 1.697 0 0 0-.9-2.719c-.817-.228-.978.098-3.066.809-.594.203-1.201.41-1.809.667-3.372.334-9.986 3.304-13.977 7.951-.078-.014-.573-.251-1.207-.034-.181.083-.7.144-1.113.676-.902.602-1.933 1.213-2.954 1.914-.283.059-.555.19-.785.394-.591.941-3.522 2.107-2.448 4.016-.078.072-.15.135-.215.191-.531-.032-.902.173-1.353.451a1.709 1.709 0 0 0-1.251.429c-6.865 6.216-6.623 5.845-6.874 6.309-.651.533-1.379 1.69-1.926 2.51-.445.558-.774 1.048-.579 1.817-.297.333-.665.739-1.176 1.299a1.697 1.697 0 0 0 .173 2.448c-1.371 1.658-3.516 3.105-5.15 4.963-.951.197-3.571 2.869-3.571 4.005 0 1.457 1.798 2.79 4.053.261 1.275-.539 4.077-2.526 11.556-9.776 1.194.265 4.33-1.714 5.333-2.418.486.65 1.084.704 1.799.672.022.199.104.514.228.738a1.699 1.699 0 0 0-.15 1.237c.419 1.612-.941 3.245-1.433 5.43a1.695 1.695 0 0 0 1.575 2.067c.025.139.068.29.137.443-.649 1.297-.22 1.502-.246 1.708-.149.483-.256.997-.398 1.184-.965 1.259.298 2.391.33 2.465a15.77 15.77 0 0 1-.111.458 1.693 1.693 0 0 0-.177 2.074c-.041.183-.07.383-.091.604-.082.196-.938.4-.543 2.265.037.074.117 1.076 1.194 1.402.187.056.366.098.538.133.063.078.13.148.197.211-.007.83.183 1.614.379 2.317-.692.09-2.037.897-2.05 2.028-.054 4.545-2.766 8.706-3.487 13.663-.027.178.424 10.225.629 10.707-.098.576.104 1.16.542 1.553-.159 2.231 1.251 3.896 1.342 5.175.102 1.48 1.172 1.31 3.903 2.458l.104.116c-.153 3.936 2.876 6.174 4.137 8.536a1.697 1.697 0 0 0-.355 2.192c.018.344.139.676.353.953.513.661 1.155.622 1.282.658.481.243.73.506 1.237.581.415.647.716 1.13.839 1.376.193.412-.987.904 2.562 3.25 1.628 1.079 1.781 1.69 2.837 1.55.488-.064 1.11-.018 1.636-.682.542-.684.408-1.662.039-2.439 5.443 3.957 1.486 4.702 3.505 6.504 2.567 2.29 13.033 8.595 18.245 5.44 3.579 2.144 3.357 3.368 7.051 2.887.596-.076 1.109-.142 1.396 0 1.184.581 1.684 1.02 3.163 2.512-.05.584.207 1.17.705 1.527.739.526 1.533 1.032 2.268.941.175.153.312.275.405.363.468 1.366 1.817 1.093 4.71 2.042 1.117 1.169 3.156.067 3.724-.939l2.136 2.108c-.467 2.265-3.4 4.943-3.584 5.047-.823.34-1.26 1.169-.977 2.014-.022.694-2.156 3.335-.164 5.155-.563.784-.716 1.81-.241 2.949a1.697 1.697 0 0 0 1.131 2.297c2.507.662 3.492 4.35 3.551 4.585a1.695 1.695 0 0 0 1.244 1.318c.434.112.567.308.959 1.403 1.372 3.857 3.988 4.165 6.282 5.614-.117 1.736-.164 2.498-.172 2.998-.952.923-.572 3.017-.843 3.401-.302.434-.385.98-.23 1.475-.042.214-.222.762-.735 1.606-1.373 1.883-.955 3.981-1.413 5.223-.292.797-.941 1.577-1.525 2.514-.683.513-.613 1.089-2.002 4.491-.092.24-.125.493-.106.741l-.452.674c-.183.182-.356.374-.528.567l-.11.123c-.736.216-1.294.862-1.448 1.419-2.202 1.994-2.046 1.808-2.093 1.849-.188.084-.22.118-.408.214a1.895 1.895 0 0 0-.671.278c-.287.197-.333.148-.6.357-1.223.538-1.505 1.706-.414 2.449.616.013.868.013 1.395.013m1.386-149.379c.094.134.096.119.721.827-.173 1.015-.074 1.913-.015 2.795a1.914 1.914 0 0 0-.184.066 1.7 1.7 0 0 0-.279-.158c-.146-.277-.267-.727-.558-1.23.2-.648.257-1.705.315-2.3zm9.514 143.34a.968.968 0 0 1 .104.003c-.031-.007-.068-.001-.104-.003zm1.418-.445v-.001c.111-.07.088-.054 0 .001zm1.883-4.096a.23.23 0 0 1 .014-.019c.289.406.752.694 1.265.755-.48-.022-.976-.295-1.279-.736z" fill="#25a346"/><path d="M411.423 295.46c60.261-79.65 15.253-202.406-101.09-202.406h-88.04c-.842 0-1.525.705-1.525 1.576.342 40.519-.801 40.479.885 41.283 14.452 6.884 27.086 16.204 38.654 30.056.924 1.105 2.673.436 2.673-1.024v-30.594c0-.87.682-1.576 1.525-1.576h45.828c111.024 0 112.226 168.846 0 168.846-37.127.297-36.769-.708-37.606.782-7.984 14.206-18.733 26.479-31.499 36.109-1.194.901-.589 2.845.889 2.845h68.217c27.15 0 51.283-7.018 71.057-19.27 0-.001 20.185-13.611 30.032-26.627z" fill="#fff"/><path d="M130.29 357.603v41.993h9.721v-41.993h-9.721zm36.783 17.434c-5.562-2.457-9.393-3.808-9.393-6.5 0-2.533 2.281-4.196 6.112-4.196 3.556 0 7.744 1.266 11.757 3.327l3.098-6.974c-4.372-2.38-9.751-3.723-14.763-3.723-9.026 0-15.863 4.593-15.863 12.2 0 7.134 6.378 10.063 13.032 12.757 5.47 2.297 9.393 3.57 9.393 6.5 0 2.854-2.639 4.593-6.745 4.593-4.288 0-9.118-1.587-13.764-4.432l-3.464 6.814c5.104 3.25 11.391 4.989 17.136 4.989 9.209 0 16.404-4.441 16.404-12.52 0-6.976-6.103-9.829-12.94-12.835zm50.295 13.229c-3.044 2.457-6.371 4.12-10.521 4.12-7.294 0-12.467-5.227-12.467-13.39v-.793c0-8.004 5.173-13.314 12.002-13.314 4.616 0 7.568 1.747 10.521 4.204l4.807-6.821c-3.792-3.242-8.217-5.386-15.512-5.386-12.741 0-22.34 8.957-22.34 21.478v.709c0 12.52 9.415 21.402 22.157 21.402 7.568 0 12.002-2.457 15.969-5.943l-4.616-6.266zm30.671-31.38c-12.658 0-22.081 9.118-22.081 21.478v.709c0 12.444 9.338 21.402 21.905 21.402 12.658 0 22.081-9.118 22.081-21.478v-.717c0-12.437-9.331-21.394-21.905-21.394zm11.765 22.271c0 7.767-4.67 13.467-11.765 13.467-6.912 0-11.933-5.784-11.933-13.627v-.793c0-7.843 4.661-13.474 11.757-13.474 7.004 0 11.94 5.707 11.94 13.634v.793zm43.215-21.554l-10.323 30.504-10.232-30.504h-10.147l15.863 42.231h8.957L313 357.603h-9.981zm54.033 21.317c0-12.52-6.997-22.035-20.089-22.035-11.902 0-20.722 8.957-20.722 21.554v.633c0 13.153 9.82 21.402 22.18 21.402 7.362 0 12.543-2.38 16.816-6.34l-4.822-5.631c-3.54 2.93-6.814 4.356-11.628 4.356-6.181 0-11.186-3.563-12.185-10.773h30.358c.092-1.029.092-2.136.092-3.166zm-30.541-3.097c.732-7.21 4.822-11.482 10.453-11.482 6.005 0 9.545 4.753 10.003 11.482h-20.456zm47.129-9.98v-8.24H363.5v41.993h10.14v-18.464c0-9.666 5.646-14.42 13.901-14.42h.541v-9.743c-7.271-.244-11.841 3.404-14.442 8.874zm51.732-8.24l-11.036 34.807-11.452-34.807h-10.987l17.548 47.021c-1.663 3.815-3.602 5.051-6.279 5.051-2.038 0-4.159-.618-6.005-1.595l-3.143 7.706c3.052 1.503 6.096 2.388 10.255 2.388 7.385 0 11.544-3.632 14.779-12.658l17.129-47.914-10.809.001zm-332.36-14.199H73.564v56.285h19.447c18.082 0 30.321-11.338 30.321-27.818v-.725c0-16.48-12.237-27.742-30.32-27.742zm19.356 28.542c0 12.139-7.759 19.295-19.082 19.295l-7.516-.005h-1.7V351.85h9.216c11.231 0 19.082 7.316 19.082 19.371v.725z" fill="#f2f2f2"/></svg>
